PathFileType	4	(X/Y/Z)	C:/Users/opensim2020/Desktop/walking_exp_matlab/subject01_walking08_straight_02.trc	
DataRate	CameraRate	NumFrames	NumMarkers	Units	OrigDataRate	OrigDataStartFrame	OrigNumFrames	
100.00	100.00	6	43	mm	100.00	2001	311	
Frame#	Time	LFHD			RFHD			LBHD			RBHD			C7			T10			CLAV			STRN			RBAK			LSHO			LUPA			LELB			LFRM			LWRA			LWRB			LFIN			RSHO			RUPA			RELB			RFRM			RWRA			RWRB			RFIN			LASI			RASI			LPSI			RPSI			LTHI			LKNE			LTIB			LANK			LHEE			LTOE			RTHI			RKNE			RTIB			RANK			RHEE			RTOE			*39			*40			*41			*42			
		X1	Y1	Z1	X2	Y2	Z2	X3	Y3	Z3	X4	Y4	Z4	X5	Y5	Z5	X6	Y6	Z6	X7	Y7	Z7	X8	Y8	Z8	X9	Y9	Z9	X10	Y10	Z10	X11	Y11	Z11	X12	Y12	Z12	X13	Y13	Z13	X14	Y14	Z14	X15	Y15	Z15	X16	Y16	Z16	X17	Y17	Z17	X18	Y18	Z18	X19	Y19	Z19	X20	Y20	Z20	X21	Y21	Z21	X22	Y22	Z22	X23	Y23	Z23	X24	Y24	Z24	X25	Y25	Z25	X26	Y26	Z26	X27	Y27	Z27	X28	Y28	Z28	X29	Y29	Z29	X30	Y30	Z30	X31	Y31	Z31	X32	Y32	Z32	X33	Y33	Z33	X34	Y34	Z34	X35	Y35	Z35	X36	Y36	Z36	X37	Y37	Z37	X38	Y38	Z38	X39	Y39	Z39	X40	Y40	Z40	X41	Y41	Z41	X42	Y42	Z42	X43	Y43	Z43	

195	1.940	1552.66528	4.22473	1669.14722	1440.19299	-11.00805	1679.08459	1541.43628	117.84347	1618.08276	1421.24316	104.89594	1627.17126	1492.75537	148.45738	1433.14368	1468.92737	185.86742	1139.64465	1488.44836	5.12716	1364.02820	1490.33289	-37.35903	1208.59888	1408.31128	203.05125	1239.15125	1651.04980	61.89590	1389.10754	1733.22803	61.61712	1203.54541	1732.59412	40.90559	1051.22607	1753.24951	-40.53489	969.30170	1732.08984	-163.69417	905.18866	1753.86633	-116.49156	874.15881	1763.92603	-190.86833	834.74744	1337.37610	69.53404	1394.42615	1234.21814	138.82251	1198.89136	1231.00891	147.08531	1074.48108	1198.41443	129.77870	956.04730	1214.20154	59.29743	832.61713	1175.46240	102.71377	837.83093	1177.55054	73.50025	756.82043	1572.89612	19.83538	928.48694	1356.59302	9.00110	938.80469	1508.40015	203.41014	943.79578	1363.70068	192.46846	946.27386	1610.90247	84.00668	597.75604	1590.35864	109.58038	464.21826	1590.00244	184.25789	288.60480	1527.07043	233.76627	76.14940	1471.17566	278.34323	51.63646	1534.67212	88.12605	33.03517	1286.75415	-18.40652	612.60718	1315.57007	-74.43228	465.27124	1306.11548	-52.52540	292.72818	1348.62512	-73.78972	84.31835	1401.82617	-36.95209	38.33391	1343.38623	-216.61835	65.86225	1463.65796	3.93494	1710.84021	-3101.91895	1973.11475	1023.32855	-3140.59302	2012.51270	1021.95062			 
196	1.950	1551.92444	-3.24750	1668.55579	1439.43542	-18.46709	1678.33545	1540.78076	110.45570	1617.66699	1420.54736	97.46909	1626.65991	1492.21643	141.27466	1432.58704	1468.50452	178.77156	1139.07520	1487.99878	-1.98627	1363.37451	1490.14636	-44.38560	1207.94812	1407.90601	195.84511	1238.47913	1650.56030	54.76343	1388.75806	1732.96350	54.03642	1203.37866	1732.53357	32.57307	1051.06006	1753.08606	-49.56572	969.79956	1731.70483	-173.25543	906.78748	1753.55103	-126.43956	875.33093	1763.58301	-201.05862	836.70142	1336.92700	62.47699	1393.59717	1234.17554	132.38631	1198.36633	1231.02930	140.78690	1073.84070	1198.36011	123.58693	955.30688	1214.10938	53.05822	831.98901	1175.45703	96.57375	837.14386	1177.49121	67.40417	756.18030	1573.29858	13.15269	927.91687	1357.00610	1.26043	938.09076	1507.85303	196.41383	943.33545	1363.35596	184.81311	945.83807	1611.10510	79.28806	597.36584	1590.51245	105.70284	463.99936	1589.91907	181.86919	288.96402	1527.14453	233.31989	76.88617	1471.15466	278.11832	52.94851	1534.69421	88.08598	32.97972	1286.95459	-23.71232	611.31177	1316.15674	-80.50433	464.57300	1305.87708	-64.67608	291.67834	1348.06287	-93.73676	84.05742	1400.48340	-57.79618	36.72057	1344.54688	-237.29089	70.31414	1462.82654	-3.62465	1710.14612	-3101.83887	1973.09839	1023.43744	-3140.68311	2012.52942	1021.97040			 
197	1.960	1551.11902	-10.71437	1667.99182	1438.57092	-25.95409	1677.57532	1539.96875	103.08917	1617.24475	1419.73364	90.05441	1626.08179	1491.68787	134.11363	1432.01611	1468.00415	171.64650	1138.47363	1487.47778	-9.16870	1362.78662	1489.90930	-51.51022	1207.40613	1407.52075	188.71696	1237.82153	1650.05640	47.57642	1388.40649	1732.60205	46.42221	1203.15686	1732.34229	24.27149	1050.89001	1752.80432	-58.55892	970.28778	1731.25891	-182.75558	908.28827	1753.22974	-136.19614	876.46948	1763.08850	-211.14267	838.36603	1336.44849	55.34568	1392.90271	1233.97693	125.73177	1197.63660	1230.80566	134.35022	1073.12402	1198.30811	117.35967	954.63824	1213.88635	46.66562	831.25433	1175.32434	90.35551	836.29443	1177.36169	61.01106	755.45117	1573.65027	6.44714	927.37665	1357.35364	-6.68048	937.24194	1507.27124	189.33388	942.82367	1362.81506	177.04176	945.22418	1611.32788	74.46389	597.03558	1590.62952	101.74836	463.66492	1589.84558	179.45200	289.47464	1527.04126	233.03310	77.96782	1470.91418	277.62543	54.09681	1534.69519	88.00372	32.94443	1286.93396	-29.37607	609.99762	1316.56189	-86.65676	463.83511	1305.64917	-76.66905	290.88712	1347.44299	-112.56882	84.23008	1399.06665	-77.55800	35.41138	1345.90295	-256.60065	75.09573	1461.96838	-11.05705	1709.46887	-3102.00317	1973.10425	1023.30426	-3140.70972	2012.48743	1021.88861			 
198	1.970	1550.16956	-18.16639	1667.36780	1437.64648	-33.44217	1676.84924	1539.08435	95.68452	1616.80542	1418.85657	82.69559	1625.50952	1491.00525	126.91623	1431.42395	1467.51184	164.47615	1137.84717	1486.98352	-16.39095	1362.18652	1489.54065	-58.60736	1206.69275	1407.03833	181.48631	1237.12024	1649.42542	40.39632	1387.96948	1732.16394	38.82346	1202.86694	1732.08423	16.01185	1050.70496	1752.47034	-67.44312	970.70062	1730.73999	-192.13258	909.65796	1752.83240	-145.81392	877.51508	1762.59802	-221.11670	839.98108	1335.83093	48.13934	1392.09875	1233.67273	118.94641	1196.90295	1230.65149	127.76951	1072.38721	1198.15076	110.91518	953.90460	1213.63293	40.11570	830.50085	1175.19934	83.84808	835.54877	1177.16199	54.46181	754.64795	1573.91602	-0.40328	926.74335	1357.67615	-14.56198	936.37305	1506.55054	182.17090	942.30737	1362.20386	169.25967	944.58252	1611.51599	69.66663	596.73102	1590.78052	97.65827	463.49475	1589.78613	177.08490	289.96912	1527.09790	232.49207	78.80682	1470.80518	277.31985	55.54312	1534.81384	87.89629	32.94336	1286.99988	-35.01551	608.78796	1316.85364	-93.11340	463.14526	1305.45508	-88.50769	290.57867	1347.01099	-129.82045	84.58297	1397.98633	-95.79725	34.71487	1347.40186	-274.43799	79.30143	1460.99121	-18.64405	1708.75073	-3101.99341	1973.04651	1023.90253	-3140.58594	2012.51587	1022.03839			 
199	1.980	1549.17578	-25.61975	1666.74426	1436.62292	-40.96587	1676.05078	1538.09534	88.30152	1616.38013	1417.86609	75.78194	1625.06311	1490.28760	119.72426	1430.81726	1466.84900	157.17944	1137.19360	1486.22363	-23.64986	1361.43335	1489.12671	-65.79620	1206.04456	1406.50024	174.21339	1236.36206	1648.75879	33.13204	1387.59961	1731.65173	31.27552	1202.58838	1731.74146	7.82402	1050.48950	1752.04565	-76.24810	971.04688	1730.14258	-201.30734	910.86224	1752.46167	-155.37689	878.41412	1761.90540	-230.84694	841.31665	1335.16064	40.85723	1391.27563	1233.29565	112.00772	1196.12488	1230.29822	121.10649	1071.62354	1197.89160	104.25452	953.04480	1213.39307	33.62767	829.58337	1174.96545	77.16853	834.70813	1176.99512	47.68168	753.80963	1574.10974	-7.34275	926.21014	1357.94836	-22.51626	935.46600	1505.77734	174.90425	941.77362	1361.39343	161.34607	943.80713	1611.65271	64.65161	596.42755	1590.95020	93.48528	463.27933	1589.70605	174.63286	290.64835	1526.94604	232.10217	79.87642	1470.83545	277.03534	57.20637	1534.82996	87.94355	32.91852	1286.77698	-41.18798	607.55219	1317.12744	-99.85277	462.61484	1305.04358	-99.85415	289.99939	1346.54382	-146.15149	85.29251	1397.12598	-112.65187	34.40022	1348.75842	-290.82382	83.11610	1459.98083	-26.24011	1708.07214	-3101.98193	1973.12756	1023.41473	-3140.77002	2012.54565	1022.03870			 
200	1.990	1548.07251	-33.11308	1666.14465	1435.52100	-48.49569	1675.33923	1537.00720	80.90753	1615.92944	1416.74719	68.31669	1624.46240	1489.58301	112.46907	1430.26013	1466.17883	149.83038	1136.48120	1485.50867	-30.86407	1360.80811	1488.66724	-73.10957	1205.43494	1405.94336	166.93787	1235.54211	1647.95935	25.79409	1387.18445	1731.03308	23.78524	1202.28955	1731.33704	-0.36022	1050.29236	1751.54016	-84.94286	971.36078	1729.44348	-210.33780	911.95032	1751.84131	-164.66867	879.25122	1761.28333	-240.32193	842.66370	1334.38745	33.63306	1390.49829	1232.82776	105.03883	1195.26978	1229.89453	114.27757	1070.77625	1197.48059	97.32143	952.05682	1213.03589	26.75051	828.78900	1174.71826	70.33283	833.74567	1176.68970	40.83939	752.99835	1574.21826	-14.29217	925.64178	1358.02856	-30.40071	934.44574	1504.90027	167.58928	941.19684	1360.59192	153.59190	943.01703	1611.83411	60.46735	595.89154	1591.09302	89.14997	463.10077	1589.62109	172.04439	291.24805	1526.99341	231.61308	81.06747	1470.93188	276.92233	59.00556	1534.80090	87.87910	32.85663	1286.44080	-47.82728	606.50378	1317.45667	-106.83357	462.12424	1304.77429	-111.47763	290.06696	1346.09021	-161.08409	85.77993	1396.23706	-128.16013	34.30647	1350.11438	-305.95438	86.35061	1458.78369	-33.78094	1707.33386	-3102.12451	1973.02051	1024.12354	-3140.65259	2012.51367	1022.07861			 
